<svg width="74" height="35" viewBox="0 0 74 35" fill="none" xmlns="http://www.w3.org/2000/svg">
<path d="M36 5.99992H35C34.5 5.99992 34.5 6.49992 34.5 6.99992C34.5 7.49992 35.5 8.49992 36 8.49992C38.4711 8.49992 42 6 44 6.5C45.375 6.84375 46 5.49984 45.5 4.99992C45 4.5 43.8604 4.04984 42.5 3.99992C41.1396 3.95 36.5 5.99992 36 5.99992Z" fill="url(#paint0_linear_229_42)"/>
<path d="M36 5.99992H35C34.5 5.99992 34.5 6.49992 34.5 6.99992C34.5 7.49992 35.5 8.49992 36 8.49992C38.4711 8.49992 42 6 44 6.5C45.375 6.84375 46 5.49984 45.5 4.99992C45 4.5 43.8604 4.04984 42.5 3.99992C41.1396 3.95 36.5 5.99992 36 5.99992Z" fill="black" fill-opacity="0.2"/>
<path d="M36 5.99992H35C34.5 5.99992 34.5 6.49992 34.5 6.99992C34.5 7.49992 35.5 8.49992 36 8.49992C38.4711 8.49992 42 6 44 6.5C45.375 6.84375 46 5.49984 45.5 4.99992C45 4.5 43.8604 4.04984 42.5 3.99992C41.1396 3.95 36.5 5.99992 36 5.99992Z" fill="black" fill-opacity="0.2"/>
<path d="M36 5.99992H35C34.5 5.99992 34.5 6.49992 34.5 6.99992C34.5 7.49992 35.5 8.49992 36 8.49992C38.4711 8.49992 42 6 44 6.5C45.375 6.84375 46 5.49984 45.5 4.99992C45 4.5 43.8604 4.04984 42.5 3.99992C41.1396 3.95 36.5 5.99992 36 5.99992Z" fill="black" fill-opacity="0.2"/>
<path d="M36 5.99992H35C34.5 5.99992 34.5 6.49992 34.5 6.99992C34.5 7.49992 35.5 8.49992 36 8.49992C38.4711 8.49992 42 6 44 6.5C45.375 6.84375 46 5.49984 45.5 4.99992C45 4.5 43.8604 4.04984 42.5 3.99992C41.1396 3.95 36.5 5.99992 36 5.99992Z" fill="black" fill-opacity="0.2"/>
<path d="M36 5.99992H35C34.5 5.99992 34.5 6.49992 34.5 6.99992C34.5 7.49992 35.5 8.49992 36 8.49992C38.4711 8.49992 42 6 44 6.5C45.375 6.84375 46 5.49984 45.5 4.99992C45 4.5 43.8604 4.04984 42.5 3.99992C41.1396 3.95 36.5 5.99992 36 5.99992Z" fill="black" fill-opacity="0.2"/>
<path d="M36 5.99992H35C34.5 5.99992 34.5 6.49992 34.5 6.99992C34.5 7.49992 35.5 8.49992 36 8.49992C38.4711 8.49992 42 6 44 6.5C45.375 6.84375 46 5.49984 45.5 4.99992C45 4.5 43.8604 4.04984 42.5 3.99992C41.1396 3.95 36.5 5.99992 36 5.99992Z" fill="black" fill-opacity="0.2"/>
<path d="M36 5.99992H35C34.5 5.99992 34.5 6.49992 34.5 6.99992C34.5 7.49992 35.5 8.49992 36 8.49992C38.4711 8.49992 42 6 44 6.5C45.375 6.84375 46 5.49984 45.5 4.99992C45 4.5 43.8604 4.04984 42.5 3.99992C41.1396 3.95 36.5 5.99992 36 5.99992Z" fill="black" fill-opacity="0.2"/>
<path d="M36 5.99992H35C34.5 5.99992 34.5 6.49992 34.5 6.99992C34.5 7.49992 35.5 8.49992 36 8.49992C38.4711 8.49992 42 6 44 6.5C45.375 6.84375 46 5.49984 45.5 4.99992C45 4.5 43.8604 4.04984 42.5 3.99992C41.1396 3.95 36.5 5.99992 36 5.99992Z" fill="black" fill-opacity="0.2"/>
<path d="M40.4998 8C39.9998 8 39.4999 8 39 8.5C38.5 9.00008 38 10.9998 37.5 12.9999C37 15 36.5 17.9999 36.5 18.5C36.5 19.0001 37.5 19.5 38 20C38.5 20.5 39.5 20.5 39.5 19.9999C39.5 19.4998 39.5 16.9999 40 14.4999C40.5 11.9999 41.5 9.99992 41.5 9.49992C41.5 8.99992 41 8 40.5 8H40.4998Z" fill="url(#paint1_linear_229_42)"/>
<path d="M40.4998 8C39.9998 8 39.4999 8 39 8.5C38.5 9.00008 38 10.9998 37.5 12.9999C37 15 36.5 17.9999 36.5 18.5C36.5 19.0001 37.5 19.5 38 20C38.5 20.5 39.5 20.5 39.5 19.9999C39.5 19.4998 39.5 16.9999 40 14.4999C40.5 11.9999 41.5 9.99992 41.5 9.49992C41.5 8.99992 41 8 40.5 8H40.4998Z" fill="black" fill-opacity="0.2"/>
<path d="M40.4998 8C39.9998 8 39.4999 8 39 8.5C38.5 9.00008 38 10.9998 37.5 12.9999C37 15 36.5 17.9999 36.5 18.5C36.5 19.0001 37.5 19.5 38 20C38.5 20.5 39.5 20.5 39.5 19.9999C39.5 19.4998 39.5 16.9999 40 14.4999C40.5 11.9999 41.5 9.99992 41.5 9.49992C41.5 8.99992 41 8 40.5 8H40.4998Z" fill="black" fill-opacity="0.2"/>
<path d="M40.4998 8C39.9998 8 39.4999 8 39 8.5C38.5 9.00008 38 10.9998 37.5 12.9999C37 15 36.5 17.9999 36.5 18.5C36.5 19.0001 37.5 19.5 38 20C38.5 20.5 39.5 20.5 39.5 19.9999C39.5 19.4998 39.5 16.9999 40 14.4999C40.5 11.9999 41.5 9.99992 41.5 9.49992C41.5 8.99992 41 8 40.5 8H40.4998Z" fill="black" fill-opacity="0.2"/>
<path d="M40.4998 8C39.9998 8 39.4999 8 39 8.5C38.5 9.00008 38 10.9998 37.5 12.9999C37 15 36.5 17.9999 36.5 18.5C36.5 19.0001 37.5 19.5 38 20C38.5 20.5 39.5 20.5 39.5 19.9999C39.5 19.4998 39.5 16.9999 40 14.4999C40.5 11.9999 41.5 9.99992 41.5 9.49992C41.5 8.99992 41 8 40.5 8H40.4998Z" fill="black" fill-opacity="0.2"/>
<path d="M40.4998 8C39.9998 8 39.4999 8 39 8.5C38.5 9.00008 38 10.9998 37.5 12.9999C37 15 36.5 17.9999 36.5 18.5C36.5 19.0001 37.5 19.5 38 20C38.5 20.5 39.5 20.5 39.5 19.9999C39.5 19.4998 39.5 16.9999 40 14.4999C40.5 11.9999 41.5 9.99992 41.5 9.49992C41.5 8.99992 41 8 40.5 8H40.4998Z" fill="black" fill-opacity="0.2"/>
<path d="M40.4998 8C39.9998 8 39.4999 8 39 8.5C38.5 9.00008 38 10.9998 37.5 12.9999C37 15 36.5 17.9999 36.5 18.5C36.5 19.0001 37.5 19.5 38 20C38.5 20.5 39.5 20.5 39.5 19.9999C39.5 19.4998 39.5 16.9999 40 14.4999C40.5 11.9999 41.5 9.99992 41.5 9.49992C41.5 8.99992 41 8 40.5 8H40.4998Z" fill="black" fill-opacity="0.2"/>
<path d="M40.4998 8C39.9998 8 39.4999 8 39 8.5C38.5 9.00008 38 10.9998 37.5 12.9999C37 15 36.5 17.9999 36.5 18.5C36.5 19.0001 37.5 19.5 38 20C38.5 20.5 39.5 20.5 39.5 19.9999C39.5 19.4998 39.5 16.9999 40 14.4999C40.5 11.9999 41.5 9.99992 41.5 9.49992C41.5 8.99992 41 8 40.5 8H40.4998Z" fill="black" fill-opacity="0.2"/>
<path d="M40.4998 8C39.9998 8 39.4999 8 39 8.5C38.5 9.00008 38 10.9998 37.5 12.9999C37 15 36.5 17.9999 36.5 18.5C36.5 19.0001 37.5 19.5 38 20C38.5 20.5 39.5 20.5 39.5 19.9999C39.5 19.4998 39.5 16.9999 40 14.4999C40.5 11.9999 41.5 9.99992 41.5 9.49992C41.5 8.99992 41 8 40.5 8H40.4998Z" fill="black" fill-opacity="0.2"/>
<path d="M45 11.5C45 10.9999 43.5 9.99992 43 10.5C42.5 11.0001 42 14.4998 42 15.9999C42 17.5 43 18 43.5 17.9999C44 17.9998 44.5 17.5 44.5 16.9999V12.9999C44.5 11.9998 45 12.0001 45 11.5Z" fill="url(#paint2_linear_229_42)"/>
<path d="M45 11.5C45 10.9999 43.5 9.99992 43 10.5C42.5 11.0001 42 14.4998 42 15.9999C42 17.5 43 18 43.5 17.9999C44 17.9998 44.5 17.5 44.5 16.9999V12.9999C44.5 11.9998 45 12.0001 45 11.5Z" fill="black" fill-opacity="0.2"/>
<path d="M45 11.5C45 10.9999 43.5 9.99992 43 10.5C42.5 11.0001 42 14.4998 42 15.9999C42 17.5 43 18 43.5 17.9999C44 17.9998 44.5 17.5 44.5 16.9999V12.9999C44.5 11.9998 45 12.0001 45 11.5Z" fill="black" fill-opacity="0.2"/>
<path d="M45 11.5C45 10.9999 43.5 9.99992 43 10.5C42.5 11.0001 42 14.4998 42 15.9999C42 17.5 43 18 43.5 17.9999C44 17.9998 44.5 17.5 44.5 16.9999V12.9999C44.5 11.9998 45 12.0001 45 11.5Z" fill="black" fill-opacity="0.2"/>
<path d="M45 11.5C45 10.9999 43.5 9.99992 43 10.5C42.5 11.0001 42 14.4998 42 15.9999C42 17.5 43 18 43.5 17.9999C44 17.9998 44.5 17.5 44.5 16.9999V12.9999C44.5 11.9998 45 12.0001 45 11.5Z" fill="black" fill-opacity="0.2"/>
<path d="M45 11.5C45 10.9999 43.5 9.99992 43 10.5C42.5 11.0001 42 14.4998 42 15.9999C42 17.5 43 18 43.5 17.9999C44 17.9998 44.5 17.5 44.5 16.9999V12.9999C44.5 11.9998 45 12.0001 45 11.5Z" fill="black" fill-opacity="0.2"/>
<path d="M45 11.5C45 10.9999 43.5 9.99992 43 10.5C42.5 11.0001 42 14.4998 42 15.9999C42 17.5 43 18 43.5 17.9999C44 17.9998 44.5 17.5 44.5 16.9999V12.9999C44.5 11.9998 45 12.0001 45 11.5Z" fill="black" fill-opacity="0.2"/>
<path d="M45 11.5C45 10.9999 43.5 9.99992 43 10.5C42.5 11.0001 42 14.4998 42 15.9999C42 17.5 43 18 43.5 17.9999C44 17.9998 44.5 17.5 44.5 16.9999V12.9999C44.5 11.9998 45 12.0001 45 11.5Z" fill="black" fill-opacity="0.2"/>
<path d="M45 11.5C45 10.9999 43.5 9.99992 43 10.5C42.5 11.0001 42 14.4998 42 15.9999C42 17.5 43 18 43.5 17.9999C44 17.9998 44.5 17.5 44.5 16.9999V12.9999C44.5 11.9998 45 12.0001 45 11.5Z" fill="black" fill-opacity="0.2"/>
<path d="M45.5 9C45 9 44 7.99992 44 7.99992C44 7.99992 43.7031 7.29686 44 6.99992C44.2969 6.70298 45 6.99992 45 6.99992C45 6.99992 45.5 6.99984 46 7.49992C46.5 8 46 9 45.5 9Z" fill="url(#paint3_linear_229_42)"/>
<path d="M45.5 9C45 9 44 7.99992 44 7.99992C44 7.99992 43.7031 7.29686 44 6.99992C44.2969 6.70298 45 6.99992 45 6.99992C45 6.99992 45.5 6.99984 46 7.49992C46.5 8 46 9 45.5 9Z" fill="black" fill-opacity="0.2"/>
<path d="M45.5 9C45 9 44 7.99992 44 7.99992C44 7.99992 43.7031 7.29686 44 6.99992C44.2969 6.70298 45 6.99992 45 6.99992C45 6.99992 45.5 6.99984 46 7.49992C46.5 8 46 9 45.5 9Z" fill="black" fill-opacity="0.2"/>
<path d="M45.5 9C45 9 44 7.99992 44 7.99992C44 7.99992 43.7031 7.29686 44 6.99992C44.2969 6.70298 45 6.99992 45 6.99992C45 6.99992 45.5 6.99984 46 7.49992C46.5 8 46 9 45.5 9Z" fill="black" fill-opacity="0.2"/>
<path d="M45.5 9C45 9 44 7.99992 44 7.99992C44 7.99992 43.7031 7.29686 44 6.99992C44.2969 6.70298 45 6.99992 45 6.99992C45 6.99992 45.5 6.99984 46 7.49992C46.5 8 46 9 45.5 9Z" fill="black" fill-opacity="0.2"/>
<path d="M45.5 9C45 9 44 7.99992 44 7.99992C44 7.99992 43.7031 7.29686 44 6.99992C44.2969 6.70298 45 6.99992 45 6.99992C45 6.99992 45.5 6.99984 46 7.49992C46.5 8 46 9 45.5 9Z" fill="black" fill-opacity="0.2"/>
<path d="M45.5 9C45 9 44 7.99992 44 7.99992C44 7.99992 43.7031 7.29686 44 6.99992C44.2969 6.70298 45 6.99992 45 6.99992C45 6.99992 45.5 6.99984 46 7.49992C46.5 8 46 9 45.5 9Z" fill="black" fill-opacity="0.2"/>
<path d="M45.5 9C45 9 44 7.99992 44 7.99992C44 7.99992 43.7031 7.29686 44 6.99992C44.2969 6.70298 45 6.99992 45 6.99992C45 6.99992 45.5 6.99984 46 7.49992C46.5 8 46 9 45.5 9Z" fill="black" fill-opacity="0.2"/>
<path d="M45.5 9C45 9 44 7.99992 44 7.99992C44 7.99992 43.7031 7.29686 44 6.99992C44.2969 6.70298 45 6.99992 45 6.99992C45 6.99992 45.5 6.99984 46 7.49992C46.5 8 46 9 45.5 9Z" fill="black" fill-opacity="0.2"/>
<path fill-rule="evenodd" clip-rule="evenodd" d="M49.0001 8.5C47.5001 8.5 46.0001 9.99984 45.5001 11.4999C44.757 13.7293 45.1407 15.1405 46.5001 16.4999C47 17 49.0001 16.5 49.5001 15.9999L50 15.5C50.5 16 51.4999 16.5001 52.5 16C53.5001 15.4999 54 14.5001 54 14V13.9998C54 13.4995 54 12 53.5001 12.9999C53.0001 14 52.0001 14.4999 51.5001 14.4999C51.0001 14.5 51.0001 14 51.5001 12C51.8263 10.6949 52.0001 9.50003 51.0001 9.50003C51.0001 9.00003 50.5001 8.5 49.0001 8.5ZM49.0001 10.4999C49.0001 10.4999 48.0001 10.9998 47.5001 11.9999C47.0001 13 47.0001 13.9999 47.0001 13.9999C47.0001 13.9999 47.0001 14.5 47.5001 14.4999C47.9998 14.4998 48.0001 14.4998 48.5001 13.4999C49.0001 12.4998 49.0001 10.4999 49.0001 10.4999Z" fill="url(#paint4_linear_229_42)"/>
<path fill-rule="evenodd" clip-rule="evenodd" d="M49.0001 8.5C47.5001 8.5 46.0001 9.99984 45.5001 11.4999C44.757 13.7293 45.1407 15.1405 46.5001 16.4999C47 17 49.0001 16.5 49.5001 15.9999L50 15.5C50.5 16 51.4999 16.5001 52.5 16C53.5001 15.4999 54 14.5001 54 14V13.9998C54 13.4995 54 12 53.5001 12.9999C53.0001 14 52.0001 14.4999 51.5001 14.4999C51.0001 14.5 51.0001 14 51.5001 12C51.8263 10.6949 52.0001 9.50003 51.0001 9.50003C51.0001 9.00003 50.5001 8.5 49.0001 8.5ZM49.0001 10.4999C49.0001 10.4999 48.0001 10.9998 47.5001 11.9999C47.0001 13 47.0001 13.9999 47.0001 13.9999C47.0001 13.9999 47.0001 14.5 47.5001 14.4999C47.9998 14.4998 48.0001 14.4998 48.5001 13.4999C49.0001 12.4998 49.0001 10.4999 49.0001 10.4999Z" fill="black" fill-opacity="0.2"/>
<path fill-rule="evenodd" clip-rule="evenodd" d="M49.0001 8.5C47.5001 8.5 46.0001 9.99984 45.5001 11.4999C44.757 13.7293 45.1407 15.1405 46.5001 16.4999C47 17 49.0001 16.5 49.5001 15.9999L50 15.5C50.5 16 51.4999 16.5001 52.5 16C53.5001 15.4999 54 14.5001 54 14V13.9998C54 13.4995 54 12 53.5001 12.9999C53.0001 14 52.0001 14.4999 51.5001 14.4999C51.0001 14.5 51.0001 14 51.5001 12C51.8263 10.6949 52.0001 9.50003 51.0001 9.50003C51.0001 9.00003 50.5001 8.5 49.0001 8.5ZM49.0001 10.4999C49.0001 10.4999 48.0001 10.9998 47.5001 11.9999C47.0001 13 47.0001 13.9999 47.0001 13.9999C47.0001 13.9999 47.0001 14.5 47.5001 14.4999C47.9998 14.4998 48.0001 14.4998 48.5001 13.4999C49.0001 12.4998 49.0001 10.4999 49.0001 10.4999Z" fill="black" fill-opacity="0.2"/>
<path fill-rule="evenodd" clip-rule="evenodd" d="M49.0001 8.5C47.5001 8.5 46.0001 9.99984 45.5001 11.4999C44.757 13.7293 45.1407 15.1405 46.5001 16.4999C47 17 49.0001 16.5 49.5001 15.9999L50 15.5C50.5 16 51.4999 16.5001 52.5 16C53.5001 15.4999 54 14.5001 54 14V13.9998C54 13.4995 54 12 53.5001 12.9999C53.0001 14 52.0001 14.4999 51.5001 14.4999C51.0001 14.5 51.0001 14 51.5001 12C51.8263 10.6949 52.0001 9.50003 51.0001 9.50003C51.0001 9.00003 50.5001 8.5 49.0001 8.5ZM49.0001 10.4999C49.0001 10.4999 48.0001 10.9998 47.5001 11.9999C47.0001 13 47.0001 13.9999 47.0001 13.9999C47.0001 13.9999 47.0001 14.5 47.5001 14.4999C47.9998 14.4998 48.0001 14.4998 48.5001 13.4999C49.0001 12.4998 49.0001 10.4999 49.0001 10.4999Z" fill="black" fill-opacity="0.2"/>
<path fill-rule="evenodd" clip-rule="evenodd" d="M49.0001 8.5C47.5001 8.5 46.0001 9.99984 45.5001 11.4999C44.757 13.7293 45.1407 15.1405 46.5001 16.4999C47 17 49.0001 16.5 49.5001 15.9999L50 15.5C50.5 16 51.4999 16.5001 52.5 16C53.5001 15.4999 54 14.5001 54 14V13.9998C54 13.4995 54 12 53.5001 12.9999C53.0001 14 52.0001 14.4999 51.5001 14.4999C51.0001 14.5 51.0001 14 51.5001 12C51.8263 10.6949 52.0001 9.50003 51.0001 9.50003C51.0001 9.00003 50.5001 8.5 49.0001 8.5ZM49.0001 10.4999C49.0001 10.4999 48.0001 10.9998 47.5001 11.9999C47.0001 13 47.0001 13.9999 47.0001 13.9999C47.0001 13.9999 47.0001 14.5 47.5001 14.4999C47.9998 14.4998 48.0001 14.4998 48.5001 13.4999C49.0001 12.4998 49.0001 10.4999 49.0001 10.4999Z" fill="black" fill-opacity="0.2"/>
<path fill-rule="evenodd" clip-rule="evenodd" d="M49.0001 8.5C47.5001 8.5 46.0001 9.99984 45.5001 11.4999C44.757 13.7293 45.1407 15.1405 46.5001 16.4999C47 17 49.0001 16.5 49.5001 15.9999L50 15.5C50.5 16 51.4999 16.5001 52.5 16C53.5001 15.4999 54 14.5001 54 14V13.9998C54 13.4995 54 12 53.5001 12.9999C53.0001 14 52.0001 14.4999 51.5001 14.4999C51.0001 14.5 51.0001 14 51.5001 12C51.8263 10.6949 52.0001 9.50003 51.0001 9.50003C51.0001 9.00003 50.5001 8.5 49.0001 8.5ZM49.0001 10.4999C49.0001 10.4999 48.0001 10.9998 47.5001 11.9999C47.0001 13 47.0001 13.9999 47.0001 13.9999C47.0001 13.9999 47.0001 14.5 47.5001 14.4999C47.9998 14.4998 48.0001 14.4998 48.5001 13.4999C49.0001 12.4998 49.0001 10.4999 49.0001 10.4999Z" fill="black" fill-opacity="0.2"/>
<path fill-rule="evenodd" clip-rule="evenodd" d="M49.0001 8.5C47.5001 8.5 46.0001 9.99984 45.5001 11.4999C44.757 13.7293 45.1407 15.1405 46.5001 16.4999C47 17 49.0001 16.5 49.5001 15.9999L50 15.5C50.5 16 51.4999 16.5001 52.5 16C53.5001 15.4999 54 14.5001 54 14V13.9998C54 13.4995 54 12 53.5001 12.9999C53.0001 14 52.0001 14.4999 51.5001 14.4999C51.0001 14.5 51.0001 14 51.5001 12C51.8263 10.6949 52.0001 9.50003 51.0001 9.50003C51.0001 9.00003 50.5001 8.5 49.0001 8.5ZM49.0001 10.4999C49.0001 10.4999 48.0001 10.9998 47.5001 11.9999C47.0001 13 47.0001 13.9999 47.0001 13.9999C47.0001 13.9999 47.0001 14.5 47.5001 14.4999C47.9998 14.4998 48.0001 14.4998 48.5001 13.4999C49.0001 12.4998 49.0001 10.4999 49.0001 10.4999Z" fill="black" fill-opacity="0.2"/>
<path fill-rule="evenodd" clip-rule="evenodd" d="M49.0001 8.5C47.5001 8.5 46.0001 9.99984 45.5001 11.4999C44.757 13.7293 45.1407 15.1405 46.5001 16.4999C47 17 49.0001 16.5 49.5001 15.9999L50 15.5C50.5 16 51.4999 16.5001 52.5 16C53.5001 15.4999 54 14.5001 54 14V13.9998C54 13.4995 54 12 53.5001 12.9999C53.0001 14 52.0001 14.4999 51.5001 14.4999C51.0001 14.5 51.0001 14 51.5001 12C51.8263 10.6949 52.0001 9.50003 51.0001 9.50003C51.0001 9.00003 50.5001 8.5 49.0001 8.5ZM49.0001 10.4999C49.0001 10.4999 48.0001 10.9998 47.5001 11.9999C47.0001 13 47.0001 13.9999 47.0001 13.9999C47.0001 13.9999 47.0001 14.5 47.5001 14.4999C47.9998 14.4998 48.0001 14.4998 48.5001 13.4999C49.0001 12.4998 49.0001 10.4999 49.0001 10.4999Z" fill="black" fill-opacity="0.2"/>
<path fill-rule="evenodd" clip-rule="evenodd" d="M49.0001 8.5C47.5001 8.5 46.0001 9.99984 45.5001 11.4999C44.757 13.7293 45.1407 15.1405 46.5001 16.4999C47 17 49.0001 16.5 49.5001 15.9999L50 15.5C50.5 16 51.4999 16.5001 52.5 16C53.5001 15.4999 54 14.5001 54 14V13.9998C54 13.4995 54 12 53.5001 12.9999C53.0001 14 52.0001 14.4999 51.5001 14.4999C51.0001 14.5 51.0001 14 51.5001 12C51.8263 10.6949 52.0001 9.50003 51.0001 9.50003C51.0001 9.00003 50.5001 8.5 49.0001 8.5ZM49.0001 10.4999C49.0001 10.4999 48.0001 10.9998 47.5001 11.9999C47.0001 13 47.0001 13.9999 47.0001 13.9999C47.0001 13.9999 47.0001 14.5 47.5001 14.4999C47.9998 14.4998 48.0001 14.4998 48.5001 13.4999C49.0001 12.4998 49.0001 10.4999 49.0001 10.4999Z" fill="black" fill-opacity="0.2"/>
<path d="M22.5 8C23 8 24 9 23.5 9.5C23.3853 9.61468 23 10 22.5 9.5C22.1206 9.62887 21.7282 10.0875 21.5 11.0003C21.4145 11.8552 21.3601 12.6923 21.3277 13.5166C23.079 12.71 25.0715 11.7141 25.4912 11.5044L25.5 11.5C26.1126 11.1939 26.5 12 25.5 13C25.3167 13.1833 25.083 13.4002 24.8112 13.6322C25.0878 13.5492 25.3431 13.5 25.5 13.5C26 13.5 26.5 13.5 27 14C27.5 14.5 27.5 15 27.5 16.5C27.5 19.5 25.2312 22.3656 23.5 21.5C22.5 21 22 20.5 22 18.5C22 16.5 23.1406 15.7508 23.5 15.5C23.8594 15.2492 25 16 24.5 16.5C23.5 19.5 24.5 20.5 25.5 17.5C25.7996 16.3015 26 15.5 25.5 15.5C24.6858 16.1231 23.6628 15.1616 23.5175 14.6195C22.8248 15.0886 22.0501 15.5189 21.2866 15.7704C21.2878 21.4987 21.9682 26.808 20 33.5C20 33.5 20.7343 33.7656 20 34.5C19.2657 35.2344 17.1143 34.2539 17.5 33C19.4183 26.7654 19.0367 21.535 19.0023 15.7429C18.3476 15.4121 17.9794 14.8402 19 14.5C19.0008 14.4997 19.0016 14.4995 19.0024 14.4992C19.029 11.7516 19.2848 9.71531 20 9.00024C20.758 8.24238 21.5 8 22.5 8Z" fill="url(#paint5_linear_229_42)"/>
<path d="M22.5 8C23 8 24 9 23.5 9.5C23.3853 9.61468 23 10 22.5 9.5C22.1206 9.62887 21.7282 10.0875 21.5 11.0003C21.4145 11.8552 21.3601 12.6923 21.3277 13.5166C23.079 12.71 25.0715 11.7141 25.4912 11.5044L25.5 11.5C26.1126 11.1939 26.5 12 25.5 13C25.3167 13.1833 25.083 13.4002 24.8112 13.6322C25.0878 13.5492 25.3431 13.5 25.5 13.5C26 13.5 26.5 13.5 27 14C27.5 14.5 27.5 15 27.5 16.5C27.5 19.5 25.2312 22.3656 23.5 21.5C22.5 21 22 20.5 22 18.5C22 16.5 23.1406 15.7508 23.5 15.5C23.8594 15.2492 25 16 24.5 16.5C23.5 19.5 24.5 20.5 25.5 17.5C25.7996 16.3015 26 15.5 25.5 15.5C24.6858 16.1231 23.6628 15.1616 23.5175 14.6195C22.8248 15.0886 22.0501 15.5189 21.2866 15.7704C21.2878 21.4987 21.9682 26.808 20 33.5C20 33.5 20.7343 33.7656 20 34.5C19.2657 35.2344 17.1143 34.2539 17.5 33C19.4183 26.7654 19.0367 21.535 19.0023 15.7429C18.3476 15.4121 17.9794 14.8402 19 14.5C19.0008 14.4997 19.0016 14.4995 19.0024 14.4992C19.029 11.7516 19.2848 9.71531 20 9.00024C20.758 8.24238 21.5 8 22.5 8Z" fill="black" fill-opacity="0.2"/>
<path d="M22.5 8C23 8 24 9 23.5 9.5C23.3853 9.61468 23 10 22.5 9.5C22.1206 9.62887 21.7282 10.0875 21.5 11.0003C21.4145 11.8552 21.3601 12.6923 21.3277 13.5166C23.079 12.71 25.0715 11.7141 25.4912 11.5044L25.5 11.5C26.1126 11.1939 26.5 12 25.5 13C25.3167 13.1833 25.083 13.4002 24.8112 13.6322C25.0878 13.5492 25.3431 13.5 25.5 13.5C26 13.5 26.5 13.5 27 14C27.5 14.5 27.5 15 27.5 16.5C27.5 19.5 25.2312 22.3656 23.5 21.5C22.5 21 22 20.5 22 18.5C22 16.5 23.1406 15.7508 23.5 15.5C23.8594 15.2492 25 16 24.5 16.5C23.5 19.5 24.5 20.5 25.5 17.5C25.7996 16.3015 26 15.5 25.5 15.5C24.6858 16.1231 23.6628 15.1616 23.5175 14.6195C22.8248 15.0886 22.0501 15.5189 21.2866 15.7704C21.2878 21.4987 21.9682 26.808 20 33.5C20 33.5 20.7343 33.7656 20 34.5C19.2657 35.2344 17.1143 34.2539 17.5 33C19.4183 26.7654 19.0367 21.535 19.0023 15.7429C18.3476 15.4121 17.9794 14.8402 19 14.5C19.0008 14.4997 19.0016 14.4995 19.0024 14.4992C19.029 11.7516 19.2848 9.71531 20 9.00024C20.758 8.24238 21.5 8 22.5 8Z" fill="black" fill-opacity="0.2"/>
<path d="M22.5 8C23 8 24 9 23.5 9.5C23.3853 9.61468 23 10 22.5 9.5C22.1206 9.62887 21.7282 10.0875 21.5 11.0003C21.4145 11.8552 21.3601 12.6923 21.3277 13.5166C23.079 12.71 25.0715 11.7141 25.4912 11.5044L25.5 11.5C26.1126 11.1939 26.5 12 25.5 13C25.3167 13.1833 25.083 13.4002 24.8112 13.6322C25.0878 13.5492 25.3431 13.5 25.5 13.5C26 13.5 26.5 13.5 27 14C27.5 14.5 27.5 15 27.5 16.5C27.5 19.5 25.2312 22.3656 23.5 21.5C22.5 21 22 20.5 22 18.5C22 16.5 23.1406 15.7508 23.5 15.5C23.8594 15.2492 25 16 24.5 16.5C23.5 19.5 24.5 20.5 25.5 17.5C25.7996 16.3015 26 15.5 25.5 15.5C24.6858 16.1231 23.6628 15.1616 23.5175 14.6195C22.8248 15.0886 22.0501 15.5189 21.2866 15.7704C21.2878 21.4987 21.9682 26.808 20 33.5C20 33.5 20.7343 33.7656 20 34.5C19.2657 35.2344 17.1143 34.2539 17.5 33C19.4183 26.7654 19.0367 21.535 19.0023 15.7429C18.3476 15.4121 17.9794 14.8402 19 14.5C19.0008 14.4997 19.0016 14.4995 19.0024 14.4992C19.029 11.7516 19.2848 9.71531 20 9.00024C20.758 8.24238 21.5 8 22.5 8Z" fill="black" fill-opacity="0.2"/>
<path d="M22.5 8C23 8 24 9 23.5 9.5C23.3853 9.61468 23 10 22.5 9.5C22.1206 9.62887 21.7282 10.0875 21.5 11.0003C21.4145 11.8552 21.3601 12.6923 21.3277 13.5166C23.079 12.71 25.0715 11.7141 25.4912 11.5044L25.5 11.5C26.1126 11.1939 26.5 12 25.5 13C25.3167 13.1833 25.083 13.4002 24.8112 13.6322C25.0878 13.5492 25.3431 13.5 25.5 13.5C26 13.5 26.5 13.5 27 14C27.5 14.5 27.5 15 27.5 16.5C27.5 19.5 25.2312 22.3656 23.5 21.5C22.5 21 22 20.5 22 18.5C22 16.5 23.1406 15.7508 23.5 15.5C23.8594 15.2492 25 16 24.5 16.5C23.5 19.5 24.5 20.5 25.5 17.5C25.7996 16.3015 26 15.5 25.5 15.5C24.6858 16.1231 23.6628 15.1616 23.5175 14.6195C22.8248 15.0886 22.0501 15.5189 21.2866 15.7704C21.2878 21.4987 21.9682 26.808 20 33.5C20 33.5 20.7343 33.7656 20 34.5C19.2657 35.2344 17.1143 34.2539 17.5 33C19.4183 26.7654 19.0367 21.535 19.0023 15.7429C18.3476 15.4121 17.9794 14.8402 19 14.5C19.0008 14.4997 19.0016 14.4995 19.0024 14.4992C19.029 11.7516 19.2848 9.71531 20 9.00024C20.758 8.24238 21.5 8 22.5 8Z" fill="black" fill-opacity="0.2"/>
<path d="M22.5 8C23 8 24 9 23.5 9.5C23.3853 9.61468 23 10 22.5 9.5C22.1206 9.62887 21.7282 10.0875 21.5 11.0003C21.4145 11.8552 21.3601 12.6923 21.3277 13.5166C23.079 12.71 25.0715 11.7141 25.4912 11.5044L25.5 11.5C26.1126 11.1939 26.5 12 25.5 13C25.3167 13.1833 25.083 13.4002 24.8112 13.6322C25.0878 13.5492 25.3431 13.5 25.5 13.5C26 13.5 26.5 13.5 27 14C27.5 14.5 27.5 15 27.5 16.5C27.5 19.5 25.2312 22.3656 23.5 21.5C22.5 21 22 20.5 22 18.5C22 16.5 23.1406 15.7508 23.5 15.5C23.8594 15.2492 25 16 24.5 16.5C23.5 19.5 24.5 20.5 25.5 17.5C25.7996 16.3015 26 15.5 25.5 15.5C24.6858 16.1231 23.6628 15.1616 23.5175 14.6195C22.8248 15.0886 22.0501 15.5189 21.2866 15.7704C21.2878 21.4987 21.9682 26.808 20 33.5C20 33.5 20.7343 33.7656 20 34.5C19.2657 35.2344 17.1143 34.2539 17.5 33C19.4183 26.7654 19.0367 21.535 19.0023 15.7429C18.3476 15.4121 17.9794 14.8402 19 14.5C19.0008 14.4997 19.0016 14.4995 19.0024 14.4992C19.029 11.7516 19.2848 9.71531 20 9.00024C20.758 8.24238 21.5 8 22.5 8Z" fill="black" fill-opacity="0.2"/>
<path d="M22.5 8C23 8 24 9 23.5 9.5C23.3853 9.61468 23 10 22.5 9.5C22.1206 9.62887 21.7282 10.0875 21.5 11.0003C21.4145 11.8552 21.3601 12.6923 21.3277 13.5166C23.079 12.71 25.0715 11.7141 25.4912 11.5044L25.5 11.5C26.1126 11.1939 26.5 12 25.5 13C25.3167 13.1833 25.083 13.4002 24.8112 13.6322C25.0878 13.5492 25.3431 13.5 25.5 13.5C26 13.5 26.5 13.5 27 14C27.5 14.5 27.5 15 27.5 16.5C27.5 19.5 25.2312 22.3656 23.5 21.5C22.5 21 22 20.5 22 18.5C22 16.5 23.1406 15.7508 23.5 15.5C23.8594 15.2492 25 16 24.5 16.5C23.5 19.5 24.5 20.5 25.5 17.5C25.7996 16.3015 26 15.5 25.5 15.5C24.6858 16.1231 23.6628 15.1616 23.5175 14.6195C22.8248 15.0886 22.0501 15.5189 21.2866 15.7704C21.2878 21.4987 21.9682 26.808 20 33.5C20 33.5 20.7343 33.7656 20 34.5C19.2657 35.2344 17.1143 34.2539 17.5 33C19.4183 26.7654 19.0367 21.535 19.0023 15.7429C18.3476 15.4121 17.9794 14.8402 19 14.5C19.0008 14.4997 19.0016 14.4995 19.0024 14.4992C19.029 11.7516 19.2848 9.71531 20 9.00024C20.758 8.24238 21.5 8 22.5 8Z" fill="black" fill-opacity="0.2"/>
<path d="M22.5 8C23 8 24 9 23.5 9.5C23.3853 9.61468 23 10 22.5 9.5C22.1206 9.62887 21.7282 10.0875 21.5 11.0003C21.4145 11.8552 21.3601 12.6923 21.3277 13.5166C23.079 12.71 25.0715 11.7141 25.4912 11.5044L25.5 11.5C26.1126 11.1939 26.5 12 25.5 13C25.3167 13.1833 25.083 13.4002 24.8112 13.6322C25.0878 13.5492 25.3431 13.5 25.5 13.5C26 13.5 26.5 13.5 27 14C27.5 14.5 27.5 15 27.5 16.5C27.5 19.5 25.2312 22.3656 23.5 21.5C22.5 21 22 20.5 22 18.5C22 16.5 23.1406 15.7508 23.5 15.5C23.8594 15.2492 25 16 24.5 16.5C23.5 19.5 24.5 20.5 25.5 17.5C25.7996 16.3015 26 15.5 25.5 15.5C24.6858 16.1231 23.6628 15.1616 23.5175 14.6195C22.8248 15.0886 22.0501 15.5189 21.2866 15.7704C21.2878 21.4987 21.9682 26.808 20 33.5C20 33.5 20.7343 33.7656 20 34.5C19.2657 35.2344 17.1143 34.2539 17.5 33C19.4183 26.7654 19.0367 21.535 19.0023 15.7429C18.3476 15.4121 17.9794 14.8402 19 14.5C19.0008 14.4997 19.0016 14.4995 19.0024 14.4992C19.029 11.7516 19.2848 9.71531 20 9.00024C20.758 8.24238 21.5 8 22.5 8Z" fill="black" fill-opacity="0.2"/>
<path d="M22.5 8C23 8 24 9 23.5 9.5C23.3853 9.61468 23 10 22.5 9.5C22.1206 9.62887 21.7282 10.0875 21.5 11.0003C21.4145 11.8552 21.3601 12.6923 21.3277 13.5166C23.079 12.71 25.0715 11.7141 25.4912 11.5044L25.5 11.5C26.1126 11.1939 26.5 12 25.5 13C25.3167 13.1833 25.083 13.4002 24.8112 13.6322C25.0878 13.5492 25.3431 13.5 25.5 13.5C26 13.5 26.5 13.5 27 14C27.5 14.5 27.5 15 27.5 16.5C27.5 19.5 25.2312 22.3656 23.5 21.5C22.5 21 22 20.5 22 18.5C22 16.5 23.1406 15.7508 23.5 15.5C23.8594 15.2492 25 16 24.5 16.5C23.5 19.5 24.5 20.5 25.5 17.5C25.7996 16.3015 26 15.5 25.5 15.5C24.6858 16.1231 23.6628 15.1616 23.5175 14.6195C22.8248 15.0886 22.0501 15.5189 21.2866 15.7704C21.2878 21.4987 21.9682 26.808 20 33.5C20 33.5 20.7343 33.7656 20 34.5C19.2657 35.2344 17.1143 34.2539 17.5 33C19.4183 26.7654 19.0367 21.535 19.0023 15.7429C18.3476 15.4121 17.9794 14.8402 19 14.5C19.0008 14.4997 19.0016 14.4995 19.0024 14.4992C19.029 11.7516 19.2848 9.71531 20 9.00024C20.758 8.24238 21.5 8 22.5 8Z" fill="black" fill-opacity="0.2"/>
<path d="M28.5 12L27.5 12.5C27.5 12.5 28 14 28 15C28 16 27.5 18.5 27.5 19C27.5 19.5 28.5 21 29 20C29.1872 19.6256 29.8248 17.5255 30 17C30.5 15.5 32.6872 12.3128 33 12C33.5 11.5 34.5 12 34.5 11C34.5 10.5 33 9.5 31.5 10.5C30.9458 10.8694 30.5 11.5 30.5 11.5L30 13L28.5 12Z" fill="url(#paint6_linear_229_42)"/>
<path d="M28.5 12L27.5 12.5C27.5 12.5 28 14 28 15C28 16 27.5 18.5 27.5 19C27.5 19.5 28.5 21 29 20C29.1872 19.6256 29.8248 17.5255 30 17C30.5 15.5 32.6872 12.3128 33 12C33.5 11.5 34.5 12 34.5 11C34.5 10.5 33 9.5 31.5 10.5C30.9458 10.8694 30.5 11.5 30.5 11.5L30 13L28.5 12Z" fill="black" fill-opacity="0.2"/>
<path d="M28.5 12L27.5 12.5C27.5 12.5 28 14 28 15C28 16 27.5 18.5 27.5 19C27.5 19.5 28.5 21 29 20C29.1872 19.6256 29.8248 17.5255 30 17C30.5 15.5 32.6872 12.3128 33 12C33.5 11.5 34.5 12 34.5 11C34.5 10.5 33 9.5 31.5 10.5C30.9458 10.8694 30.5 11.5 30.5 11.5L30 13L28.5 12Z" fill="black" fill-opacity="0.2"/>
<path d="M28.5 12L27.5 12.5C27.5 12.5 28 14 28 15C28 16 27.5 18.5 27.5 19C27.5 19.5 28.5 21 29 20C29.1872 19.6256 29.8248 17.5255 30 17C30.5 15.5 32.6872 12.3128 33 12C33.5 11.5 34.5 12 34.5 11C34.5 10.5 33 9.5 31.5 10.5C30.9458 10.8694 30.5 11.5 30.5 11.5L30 13L28.5 12Z" fill="black" fill-opacity="0.2"/>
<path d="M28.5 12L27.5 12.5C27.5 12.5 28 14 28 15C28 16 27.5 18.5 27.5 19C27.5 19.5 28.5 21 29 20C29.1872 19.6256 29.8248 17.5255 30 17C30.5 15.5 32.6872 12.3128 33 12C33.5 11.5 34.5 12 34.5 11C34.5 10.5 33 9.5 31.5 10.5C30.9458 10.8694 30.5 11.5 30.5 11.5L30 13L28.5 12Z" fill="black" fill-opacity="0.2"/>
<path d="M28.5 12L27.5 12.5C27.5 12.5 28 14 28 15C28 16 27.5 18.5 27.5 19C27.5 19.5 28.5 21 29 20C29.1872 19.6256 29.8248 17.5255 30 17C30.5 15.5 32.6872 12.3128 33 12C33.5 11.5 34.5 12 34.5 11C34.5 10.5 33 9.5 31.5 10.5C30.9458 10.8694 30.5 11.5 30.5 11.5L30 13L28.5 12Z" fill="black" fill-opacity="0.2"/>
<path d="M28.5 12L27.5 12.5C27.5 12.5 28 14 28 15C28 16 27.5 18.5 27.5 19C27.5 19.5 28.5 21 29 20C29.1872 19.6256 29.8248 17.5255 30 17C30.5 15.5 32.6872 12.3128 33 12C33.5 11.5 34.5 12 34.5 11C34.5 10.5 33 9.5 31.5 10.5C30.9458 10.8694 30.5 11.5 30.5 11.5L30 13L28.5 12Z" fill="black" fill-opacity="0.2"/>
<path d="M28.5 12L27.5 12.5C27.5 12.5 28 14 28 15C28 16 27.5 18.5 27.5 19C27.5 19.5 28.5 21 29 20C29.1872 19.6256 29.8248 17.5255 30 17C30.5 15.5 32.6872 12.3128 33 12C33.5 11.5 34.5 12 34.5 11C34.5 10.5 33 9.5 31.5 10.5C30.9458 10.8694 30.5 11.5 30.5 11.5L30 13L28.5 12Z" fill="black" fill-opacity="0.2"/>
<path d="M28.5 12L27.5 12.5C27.5 12.5 28 14 28 15C28 16 27.5 18.5 27.5 19C27.5 19.5 28.5 21 29 20C29.1872 19.6256 29.8248 17.5255 30 17C30.5 15.5 32.6872 12.3128 33 12C33.5 11.5 34.5 12 34.5 11C34.5 10.5 33 9.5 31.5 10.5C30.9458 10.8694 30.5 11.5 30.5 11.5L30 13L28.5 12Z" fill="black" fill-opacity="0.2"/>
<path d="M14 18.5002C14 17.2812 13.5 16.5 12.5 17.5C11.7264 18.2733 11.5 19.5002 11.5 20.5002C11.5 21.5002 11.7734 22.2737 12.5 23.0002C13.2266 23.7268 14.5 24.0002 15.5 23.5002C16.5 23.0002 18 20.5002 18 19.0002C18 17.5002 17.5 17.0002 17 16.5002C16.5 16.0002 16.2031 16.0002 15.5 16.0002C14 16 13.0854 16.5856 14 17.5002C14.2499 17.7501 14.5 17.5002 15 17.5002C15.5 17.5002 15.5 18.0002 15.5 18.5002C15.5 19.0002 15 21.0002 14.5 21.5002C14 22.0002 13.5 21.5002 13.5 21.0002C13.5 20.5002 14 19.0002 14 18.5002Z" fill="url(#paint7_linear_229_42)"/>
<path d="M14 18.5002C14 17.2812 13.5 16.5 12.5 17.5C11.7264 18.2733 11.5 19.5002 11.5 20.5002C11.5 21.5002 11.7734 22.2737 12.5 23.0002C13.2266 23.7268 14.5 24.0002 15.5 23.5002C16.5 23.0002 18 20.5002 18 19.0002C18 17.5002 17.5 17.0002 17 16.5002C16.5 16.0002 16.2031 16.0002 15.5 16.0002C14 16 13.0854 16.5856 14 17.5002C14.2499 17.7501 14.5 17.5002 15 17.5002C15.5 17.5002 15.5 18.0002 15.5 18.5002C15.5 19.0002 15 21.0002 14.5 21.5002C14 22.0002 13.5 21.5002 13.5 21.0002C13.5 20.5002 14 19.0002 14 18.5002Z" fill="black" fill-opacity="0.2"/>
<path d="M14 18.5002C14 17.2812 13.5 16.5 12.5 17.5C11.7264 18.2733 11.5 19.5002 11.5 20.5002C11.5 21.5002 11.7734 22.2737 12.5 23.0002C13.2266 23.7268 14.5 24.0002 15.5 23.5002C16.5 23.0002 18 20.5002 18 19.0002C18 17.5002 17.5 17.0002 17 16.5002C16.5 16.0002 16.2031 16.0002 15.5 16.0002C14 16 13.0854 16.5856 14 17.5002C14.2499 17.7501 14.5 17.5002 15 17.5002C15.5 17.5002 15.5 18.0002 15.5 18.5002C15.5 19.0002 15 21.0002 14.5 21.5002C14 22.0002 13.5 21.5002 13.5 21.0002C13.5 20.5002 14 19.0002 14 18.5002Z" fill="black" fill-opacity="0.2"/>
<path d="M14 18.5002C14 17.2812 13.5 16.5 12.5 17.5C11.7264 18.2733 11.5 19.5002 11.5 20.5002C11.5 21.5002 11.7734 22.2737 12.5 23.0002C13.2266 23.7268 14.5 24.0002 15.5 23.5002C16.5 23.0002 18 20.5002 18 19.0002C18 17.5002 17.5 17.0002 17 16.5002C16.5 16.0002 16.2031 16.0002 15.5 16.0002C14 16 13.0854 16.5856 14 17.5002C14.2499 17.7501 14.5 17.5002 15 17.5002C15.5 17.5002 15.5 18.0002 15.5 18.5002C15.5 19.0002 15 21.0002 14.5 21.5002C14 22.0002 13.5 21.5002 13.5 21.0002C13.5 20.5002 14 19.0002 14 18.5002Z" fill="black" fill-opacity="0.2"/>
<path d="M14 18.5002C14 17.2812 13.5 16.5 12.5 17.5C11.7264 18.2733 11.5 19.5002 11.5 20.5002C11.5 21.5002 11.7734 22.2737 12.5 23.0002C13.2266 23.7268 14.5 24.0002 15.5 23.5002C16.5 23.0002 18 20.5002 18 19.0002C18 17.5002 17.5 17.0002 17 16.5002C16.5 16.0002 16.2031 16.0002 15.5 16.0002C14 16 13.0854 16.5856 14 17.5002C14.2499 17.7501 14.5 17.5002 15 17.5002C15.5 17.5002 15.5 18.0002 15.5 18.5002C15.5 19.0002 15 21.0002 14.5 21.5002C14 22.0002 13.5 21.5002 13.5 21.0002C13.5 20.5002 14 19.0002 14 18.5002Z" fill="black" fill-opacity="0.2"/>
<path d="M14 18.5002C14 17.2812 13.5 16.5 12.5 17.5C11.7264 18.2733 11.5 19.5002 11.5 20.5002C11.5 21.5002 11.7734 22.2737 12.5 23.0002C13.2266 23.7268 14.5 24.0002 15.5 23.5002C16.5 23.0002 18 20.5002 18 19.0002C18 17.5002 17.5 17.0002 17 16.5002C16.5 16.0002 16.2031 16.0002 15.5 16.0002C14 16 13.0854 16.5856 14 17.5002C14.2499 17.7501 14.5 17.5002 15 17.5002C15.5 17.5002 15.5 18.0002 15.5 18.5002C15.5 19.0002 15 21.0002 14.5 21.5002C14 22.0002 13.5 21.5002 13.5 21.0002C13.5 20.5002 14 19.0002 14 18.5002Z" fill="black" fill-opacity="0.2"/>
<path d="M14 18.5002C14 17.2812 13.5 16.5 12.5 17.5C11.7264 18.2733 11.5 19.5002 11.5 20.5002C11.5 21.5002 11.7734 22.2737 12.5 23.0002C13.2266 23.7268 14.5 24.0002 15.5 23.5002C16.5 23.0002 18 20.5002 18 19.0002C18 17.5002 17.5 17.0002 17 16.5002C16.5 16.0002 16.2031 16.0002 15.5 16.0002C14 16 13.0854 16.5856 14 17.5002C14.2499 17.7501 14.5 17.5002 15 17.5002C15.5 17.5002 15.5 18.0002 15.5 18.5002C15.5 19.0002 15 21.0002 14.5 21.5002C14 22.0002 13.5 21.5002 13.5 21.0002C13.5 20.5002 14 19.0002 14 18.5002Z" fill="black" fill-opacity="0.2"/>
<path d="M14 18.5002C14 17.2812 13.5 16.5 12.5 17.5C11.7264 18.2733 11.5 19.5002 11.5 20.5002C11.5 21.5002 11.7734 22.2737 12.5 23.0002C13.2266 23.7268 14.5 24.0002 15.5 23.5002C16.5 23.0002 18 20.5002 18 19.0002C18 17.5002 17.5 17.0002 17 16.5002C16.5 16.0002 16.2031 16.0002 15.5 16.0002C14 16 13.0854 16.5856 14 17.5002C14.2499 17.7501 14.5 17.5002 15 17.5002C15.5 17.5002 15.5 18.0002 15.5 18.5002C15.5 19.0002 15 21.0002 14.5 21.5002C14 22.0002 13.5 21.5002 13.5 21.0002C13.5 20.5002 14 19.0002 14 18.5002Z" fill="black" fill-opacity="0.2"/>
<path d="M14 18.5002C14 17.2812 13.5 16.5 12.5 17.5C11.7264 18.2733 11.5 19.5002 11.5 20.5002C11.5 21.5002 11.7734 22.2737 12.5 23.0002C13.2266 23.7268 14.5 24.0002 15.5 23.5002C16.5 23.0002 18 20.5002 18 19.0002C18 17.5002 17.5 17.0002 17 16.5002C16.5 16.0002 16.2031 16.0002 15.5 16.0002C14 16 13.0854 16.5856 14 17.5002C14.2499 17.7501 14.5 17.5002 15 17.5002C15.5 17.5002 15.5 18.0002 15.5 18.5002C15.5 19.0002 15 21.0002 14.5 21.5002C14 22.0002 13.5 21.5002 13.5 21.0002C13.5 20.5002 14 19.0002 14 18.5002Z" fill="black" fill-opacity="0.2"/>
<path d="M8.99996 16.0002C8.22649 16.7737 7.49996 16.5001 6.75908 15.8126C6.0182 15.1251 6.23433 14.8282 6.75908 14.8282C7.18746 14.8282 7.49996 14.0001 7.49996 14.0001C7.49996 14.0001 7.93965 13.2038 7.99996 12.5001C8.0567 11.8379 7.99981 11.0003 7.49996 11.5003L7.49847 11.5017C6.99911 12.0012 6.49946 12.501 5.99996 13.5001C5.49996 14.5001 4.00011 18.0001 3.50011 21.0001C3.00011 24.0001 3.73448 24.7657 5.00011 23.5001C6.00011 22.5001 7.5 20 7.5 20C7.5 20 7.00011 19.5001 6.75908 19.2149C6.49116 18.8979 9.5 17.5 10 20C10.3058 22.4461 10.6962 24.5 11.0149 25.0946C11.4045 25.8218 10.5 26.5 9.5 26C9 25.5 8.5 25.5 8.50011 24.0001C7.94439 25.1115 5.65707 26.5267 4.49999 26.5C3.50011 26.477 1.94431 25.1665 1.50008 24.5001C0.500189 23.0001 1.0002 19.5001 2.00011 17.0001C3.00002 14.5 4.99987 11.5005 5.99996 10.5003C7.00004 9.49999 8.49996 9.4998 8.99996 10C9.49996 10.5002 10.0563 11.846 9.99996 13.0002C9.96471 13.7219 9.42556 15.5747 8.99996 16.0002Z" fill="url(#paint8_linear_229_42)"/>
<path d="M8.99996 16.0002C8.22649 16.7737 7.49996 16.5001 6.75908 15.8126C6.0182 15.1251 6.23433 14.8282 6.75908 14.8282C7.18746 14.8282 7.49996 14.0001 7.49996 14.0001C7.49996 14.0001 7.93965 13.2038 7.99996 12.5001C8.0567 11.8379 7.99981 11.0003 7.49996 11.5003L7.49847 11.5017C6.99911 12.0012 6.49946 12.501 5.99996 13.5001C5.49996 14.5001 4.00011 18.0001 3.50011 21.0001C3.00011 24.0001 3.73448 24.7657 5.00011 23.5001C6.00011 22.5001 7.5 20 7.5 20C7.5 20 7.00011 19.5001 6.75908 19.2149C6.49116 18.8979 9.5 17.5 10 20C10.3058 22.4461 10.6962 24.5 11.0149 25.0946C11.4045 25.8218 10.5 26.5 9.5 26C9 25.5 8.5 25.5 8.50011 24.0001C7.94439 25.1115 5.65707 26.5267 4.49999 26.5C3.50011 26.477 1.94431 25.1665 1.50008 24.5001C0.500189 23.0001 1.0002 19.5001 2.00011 17.0001C3.00002 14.5 4.99987 11.5005 5.99996 10.5003C7.00004 9.49999 8.49996 9.4998 8.99996 10C9.49996 10.5002 10.0563 11.846 9.99996 13.0002C9.96471 13.7219 9.42556 15.5747 8.99996 16.0002Z" fill="black" fill-opacity="0.2"/>
<path d="M8.99996 16.0002C8.22649 16.7737 7.49996 16.5001 6.75908 15.8126C6.0182 15.1251 6.23433 14.8282 6.75908 14.8282C7.18746 14.8282 7.49996 14.0001 7.49996 14.0001C7.49996 14.0001 7.93965 13.2038 7.99996 12.5001C8.0567 11.8379 7.99981 11.0003 7.49996 11.5003L7.49847 11.5017C6.99911 12.0012 6.49946 12.501 5.99996 13.5001C5.49996 14.5001 4.00011 18.0001 3.50011 21.0001C3.00011 24.0001 3.73448 24.7657 5.00011 23.5001C6.00011 22.5001 7.5 20 7.5 20C7.5 20 7.00011 19.5001 6.75908 19.2149C6.49116 18.8979 9.5 17.5 10 20C10.3058 22.4461 10.6962 24.5 11.0149 25.0946C11.4045 25.8218 10.5 26.5 9.5 26C9 25.5 8.5 25.5 8.50011 24.0001C7.94439 25.1115 5.65707 26.5267 4.49999 26.5C3.50011 26.477 1.94431 25.1665 1.50008 24.5001C0.500189 23.0001 1.0002 19.5001 2.00011 17.0001C3.00002 14.5 4.99987 11.5005 5.99996 10.5003C7.00004 9.49999 8.49996 9.4998 8.99996 10C9.49996 10.5002 10.0563 11.846 9.99996 13.0002C9.96471 13.7219 9.42556 15.5747 8.99996 16.0002Z" fill="black" fill-opacity="0.2"/>
<path d="M8.99996 16.0002C8.22649 16.7737 7.49996 16.5001 6.75908 15.8126C6.0182 15.1251 6.23433 14.8282 6.75908 14.8282C7.18746 14.8282 7.49996 14.0001 7.49996 14.0001C7.49996 14.0001 7.93965 13.2038 7.99996 12.5001C8.0567 11.8379 7.99981 11.0003 7.49996 11.5003L7.49847 11.5017C6.99911 12.0012 6.49946 12.501 5.99996 13.5001C5.49996 14.5001 4.00011 18.0001 3.50011 21.0001C3.00011 24.0001 3.73448 24.7657 5.00011 23.5001C6.00011 22.5001 7.5 20 7.5 20C7.5 20 7.00011 19.5001 6.75908 19.2149C6.49116 18.8979 9.5 17.5 10 20C10.3058 22.4461 10.6962 24.5 11.0149 25.0946C11.4045 25.8218 10.5 26.5 9.5 26C9 25.5 8.5 25.5 8.50011 24.0001C7.94439 25.1115 5.65707 26.5267 4.49999 26.5C3.50011 26.477 1.94431 25.1665 1.50008 24.5001C0.500189 23.0001 1.0002 19.5001 2.00011 17.0001C3.00002 14.5 4.99987 11.5005 5.99996 10.5003C7.00004 9.49999 8.49996 9.4998 8.99996 10C9.49996 10.5002 10.0563 11.846 9.99996 13.0002C9.96471 13.7219 9.42556 15.5747 8.99996 16.0002Z" fill="black" fill-opacity="0.2"/>
<path d="M8.99996 16.0002C8.22649 16.7737 7.49996 16.5001 6.75908 15.8126C6.0182 15.1251 6.23433 14.8282 6.75908 14.8282C7.18746 14.8282 7.49996 14.0001 7.49996 14.0001C7.49996 14.0001 7.93965 13.2038 7.99996 12.5001C8.0567 11.8379 7.99981 11.0003 7.49996 11.5003L7.49847 11.5017C6.99911 12.0012 6.49946 12.501 5.99996 13.5001C5.49996 14.5001 4.00011 18.0001 3.50011 21.0001C3.00011 24.0001 3.73448 24.7657 5.00011 23.5001C6.00011 22.5001 7.5 20 7.5 20C7.5 20 7.00011 19.5001 6.75908 19.2149C6.49116 18.8979 9.5 17.5 10 20C10.3058 22.4461 10.6962 24.5 11.0149 25.0946C11.4045 25.8218 10.5 26.5 9.5 26C9 25.5 8.5 25.5 8.50011 24.0001C7.94439 25.1115 5.65707 26.5267 4.49999 26.5C3.50011 26.477 1.94431 25.1665 1.50008 24.5001C0.500189 23.0001 1.0002 19.5001 2.00011 17.0001C3.00002 14.5 4.99987 11.5005 5.99996 10.5003C7.00004 9.49999 8.49996 9.4998 8.99996 10C9.49996 10.5002 10.0563 11.846 9.99996 13.0002C9.96471 13.7219 9.42556 15.5747 8.99996 16.0002Z" fill="black" fill-opacity="0.2"/>
<path d="M8.99996 16.0002C8.22649 16.7737 7.49996 16.5001 6.75908 15.8126C6.0182 15.1251 6.23433 14.8282 6.75908 14.8282C7.18746 14.8282 7.49996 14.0001 7.49996 14.0001C7.49996 14.0001 7.93965 13.2038 7.99996 12.5001C8.0567 11.8379 7.99981 11.0003 7.49996 11.5003L7.49847 11.5017C6.99911 12.0012 6.49946 12.501 5.99996 13.5001C5.49996 14.5001 4.00011 18.0001 3.50011 21.0001C3.00011 24.0001 3.73448 24.7657 5.00011 23.5001C6.00011 22.5001 7.5 20 7.5 20C7.5 20 7.00011 19.5001 6.75908 19.2149C6.49116 18.8979 9.5 17.5 10 20C10.3058 22.4461 10.6962 24.5 11.0149 25.0946C11.4045 25.8218 10.5 26.5 9.5 26C9 25.5 8.5 25.5 8.50011 24.0001C7.94439 25.1115 5.65707 26.5267 4.49999 26.5C3.50011 26.477 1.94431 25.1665 1.50008 24.5001C0.500189 23.0001 1.0002 19.5001 2.00011 17.0001C3.00002 14.5 4.99987 11.5005 5.99996 10.5003C7.00004 9.49999 8.49996 9.4998 8.99996 10C9.49996 10.5002 10.0563 11.846 9.99996 13.0002C9.96471 13.7219 9.42556 15.5747 8.99996 16.0002Z" fill="black" fill-opacity="0.2"/>
<path d="M8.99996 16.0002C8.22649 16.7737 7.49996 16.5001 6.75908 15.8126C6.0182 15.1251 6.23433 14.8282 6.75908 14.8282C7.18746 14.8282 7.49996 14.0001 7.49996 14.0001C7.49996 14.0001 7.93965 13.2038 7.99996 12.5001C8.0567 11.8379 7.99981 11.0003 7.49996 11.5003L7.49847 11.5017C6.99911 12.0012 6.49946 12.501 5.99996 13.5001C5.49996 14.5001 4.00011 18.0001 3.50011 21.0001C3.00011 24.0001 3.73448 24.7657 5.00011 23.5001C6.00011 22.5001 7.5 20 7.5 20C7.5 20 7.00011 19.5001 6.75908 19.2149C6.49116 18.8979 9.5 17.5 10 20C10.3058 22.4461 10.6962 24.5 11.0149 25.0946C11.4045 25.8218 10.5 26.5 9.5 26C9 25.5 8.5 25.5 8.50011 24.0001C7.94439 25.1115 5.65707 26.5267 4.49999 26.5C3.50011 26.477 1.94431 25.1665 1.50008 24.5001C0.500189 23.0001 1.0002 19.5001 2.00011 17.0001C3.00002 14.5 4.99987 11.5005 5.99996 10.5003C7.00004 9.49999 8.49996 9.4998 8.99996 10C9.49996 10.5002 10.0563 11.846 9.99996 13.0002C9.96471 13.7219 9.42556 15.5747 8.99996 16.0002Z" fill="black" fill-opacity="0.2"/>
<path d="M8.99996 16.0002C8.22649 16.7737 7.49996 16.5001 6.75908 15.8126C6.0182 15.1251 6.23433 14.8282 6.75908 14.8282C7.18746 14.8282 7.49996 14.0001 7.49996 14.0001C7.49996 14.0001 7.93965 13.2038 7.99996 12.5001C8.0567 11.8379 7.99981 11.0003 7.49996 11.5003L7.49847 11.5017C6.99911 12.0012 6.49946 12.501 5.99996 13.5001C5.49996 14.5001 4.00011 18.0001 3.50011 21.0001C3.00011 24.0001 3.73448 24.7657 5.00011 23.5001C6.00011 22.5001 7.5 20 7.5 20C7.5 20 7.00011 19.5001 6.75908 19.2149C6.49116 18.8979 9.5 17.5 10 20C10.3058 22.4461 10.6962 24.5 11.0149 25.0946C11.4045 25.8218 10.5 26.5 9.5 26C9 25.5 8.5 25.5 8.50011 24.0001C7.94439 25.1115 5.65707 26.5267 4.49999 26.5C3.50011 26.477 1.94431 25.1665 1.50008 24.5001C0.500189 23.0001 1.0002 19.5001 2.00011 17.0001C3.00002 14.5 4.99987 11.5005 5.99996 10.5003C7.00004 9.49999 8.49996 9.4998 8.99996 10C9.49996 10.5002 10.0563 11.846 9.99996 13.0002C9.96471 13.7219 9.42556 15.5747 8.99996 16.0002Z" fill="black" fill-opacity="0.2"/>
<path d="M8.99996 16.0002C8.22649 16.7737 7.49996 16.5001 6.75908 15.8126C6.0182 15.1251 6.23433 14.8282 6.75908 14.8282C7.18746 14.8282 7.49996 14.0001 7.49996 14.0001C7.49996 14.0001 7.93965 13.2038 7.99996 12.5001C8.0567 11.8379 7.99981 11.0003 7.49996 11.5003L7.49847 11.5017C6.99911 12.0012 6.49946 12.501 5.99996 13.5001C5.49996 14.5001 4.00011 18.0001 3.50011 21.0001C3.00011 24.0001 3.73448 24.7657 5.00011 23.5001C6.00011 22.5001 7.5 20 7.5 20C7.5 20 7.00011 19.5001 6.75908 19.2149C6.49116 18.8979 9.5 17.5 10 20C10.3058 22.4461 10.6962 24.5 11.0149 25.0946C11.4045 25.8218 10.5 26.5 9.5 26C9 25.5 8.5 25.5 8.50011 24.0001C7.94439 25.1115 5.65707 26.5267 4.49999 26.5C3.50011 26.477 1.94431 25.1665 1.50008 24.5001C0.500189 23.0001 1.0002 19.5001 2.00011 17.0001C3.00002 14.5 4.99987 11.5005 5.99996 10.5003C7.00004 9.49999 8.49996 9.4998 8.99996 10C9.49996 10.5002 10.0563 11.846 9.99996 13.0002C9.96471 13.7219 9.42556 15.5747 8.99996 16.0002Z" fill="black" fill-opacity="0.2"/>
<path d="M60 8C60 8 59.5 7 58 7C56.5 7 56 8.5 55.5 8C55 7.5 54.5 7 53.714 7.45312C52.928 7.90625 53.428 8.125 53.714 8.5C54 8.875 53.847 9.5 53.714 10.1956C53.4185 11.7415 53 13.8531 53 14.5C53 15.5 54.7734 15.2266 55 15C55.5 14.5 56 11.5 56.5 10.5C57 9.5 58 9 58 9C58.5 9 58 11.5 58 13.5C58.5 14.5 58.5 14.5 59.5 14.5C60.5 14.5 59.9597 14 60 13.5C60.0201 13.2504 60.5579 10.409 60.5 9.5C60.4506 8.72415 60 8 60 8Z" fill="url(#paint9_linear_229_42)"/>
<path d="M60 8C60 8 59.5 7 58 7C56.5 7 56 8.5 55.5 8C55 7.5 54.5 7 53.714 7.45312C52.928 7.90625 53.428 8.125 53.714 8.5C54 8.875 53.847 9.5 53.714 10.1956C53.4185 11.7415 53 13.8531 53 14.5C53 15.5 54.7734 15.2266 55 15C55.5 14.5 56 11.5 56.5 10.5C57 9.5 58 9 58 9C58.5 9 58 11.5 58 13.5C58.5 14.5 58.5 14.5 59.5 14.5C60.5 14.5 59.9597 14 60 13.5C60.0201 13.2504 60.5579 10.409 60.5 9.5C60.4506 8.72415 60 8 60 8Z" fill="black" fill-opacity="0.2"/>
<path d="M60 8C60 8 59.5 7 58 7C56.5 7 56 8.5 55.5 8C55 7.5 54.5 7 53.714 7.45312C52.928 7.90625 53.428 8.125 53.714 8.5C54 8.875 53.847 9.5 53.714 10.1956C53.4185 11.7415 53 13.8531 53 14.5C53 15.5 54.7734 15.2266 55 15C55.5 14.5 56 11.5 56.5 10.5C57 9.5 58 9 58 9C58.5 9 58 11.5 58 13.5C58.5 14.5 58.5 14.5 59.5 14.5C60.5 14.5 59.9597 14 60 13.5C60.0201 13.2504 60.5579 10.409 60.5 9.5C60.4506 8.72415 60 8 60 8Z" fill="black" fill-opacity="0.2"/>
<path d="M60 8C60 8 59.5 7 58 7C56.5 7 56 8.5 55.5 8C55 7.5 54.5 7 53.714 7.45312C52.928 7.90625 53.428 8.125 53.714 8.5C54 8.875 53.847 9.5 53.714 10.1956C53.4185 11.7415 53 13.8531 53 14.5C53 15.5 54.7734 15.2266 55 15C55.5 14.5 56 11.5 56.5 10.5C57 9.5 58 9 58 9C58.5 9 58 11.5 58 13.5C58.5 14.5 58.5 14.5 59.5 14.5C60.5 14.5 59.9597 14 60 13.5C60.0201 13.2504 60.5579 10.409 60.5 9.5C60.4506 8.72415 60 8 60 8Z" fill="black" fill-opacity="0.2"/>
<path d="M60 8C60 8 59.5 7 58 7C56.5 7 56 8.5 55.5 8C55 7.5 54.5 7 53.714 7.45312C52.928 7.90625 53.428 8.125 53.714 8.5C54 8.875 53.847 9.5 53.714 10.1956C53.4185 11.7415 53 13.8531 53 14.5C53 15.5 54.7734 15.2266 55 15C55.5 14.5 56 11.5 56.5 10.5C57 9.5 58 9 58 9C58.5 9 58 11.5 58 13.5C58.5 14.5 58.5 14.5 59.5 14.5C60.5 14.5 59.9597 14 60 13.5C60.0201 13.2504 60.5579 10.409 60.5 9.5C60.4506 8.72415 60 8 60 8Z" fill="black" fill-opacity="0.2"/>
<path d="M60 8C60 8 59.5 7 58 7C56.5 7 56 8.5 55.5 8C55 7.5 54.5 7 53.714 7.45312C52.928 7.90625 53.428 8.125 53.714 8.5C54 8.875 53.847 9.5 53.714 10.1956C53.4185 11.7415 53 13.8531 53 14.5C53 15.5 54.7734 15.2266 55 15C55.5 14.5 56 11.5 56.5 10.5C57 9.5 58 9 58 9C58.5 9 58 11.5 58 13.5C58.5 14.5 58.5 14.5 59.5 14.5C60.5 14.5 59.9597 14 60 13.5C60.0201 13.2504 60.5579 10.409 60.5 9.5C60.4506 8.72415 60 8 60 8Z" fill="black" fill-opacity="0.2"/>
<path d="M60 8C60 8 59.5 7 58 7C56.5 7 56 8.5 55.5 8C55 7.5 54.5 7 53.714 7.45312C52.928 7.90625 53.428 8.125 53.714 8.5C54 8.875 53.847 9.5 53.714 10.1956C53.4185 11.7415 53 13.8531 53 14.5C53 15.5 54.7734 15.2266 55 15C55.5 14.5 56 11.5 56.5 10.5C57 9.5 58 9 58 9C58.5 9 58 11.5 58 13.5C58.5 14.5 58.5 14.5 59.5 14.5C60.5 14.5 59.9597 14 60 13.5C60.0201 13.2504 60.5579 10.409 60.5 9.5C60.4506 8.72415 60 8 60 8Z" fill="black" fill-opacity="0.2"/>
<path d="M60 8C60 8 59.5 7 58 7C56.5 7 56 8.5 55.5 8C55 7.5 54.5 7 53.714 7.45312C52.928 7.90625 53.428 8.125 53.714 8.5C54 8.875 53.847 9.5 53.714 10.1956C53.4185 11.7415 53 13.8531 53 14.5C53 15.5 54.7734 15.2266 55 15C55.5 14.5 56 11.5 56.5 10.5C57 9.5 58 9 58 9C58.5 9 58 11.5 58 13.5C58.5 14.5 58.5 14.5 59.5 14.5C60.5 14.5 59.9597 14 60 13.5C60.0201 13.2504 60.5579 10.409 60.5 9.5C60.4506 8.72415 60 8 60 8Z" fill="black" fill-opacity="0.2"/>
<path d="M60 8C60 8 59.5 7 58 7C56.5 7 56 8.5 55.5 8C55 7.5 54.5 7 53.714 7.45312C52.928 7.90625 53.428 8.125 53.714 8.5C54 8.875 53.847 9.5 53.714 10.1956C53.4185 11.7415 53 13.8531 53 14.5C53 15.5 54.7734 15.2266 55 15C55.5 14.5 56 11.5 56.5 10.5C57 9.5 58 9 58 9C58.5 9 58 11.5 58 13.5C58.5 14.5 58.5 14.5 59.5 14.5C60.5 14.5 59.9597 14 60 13.5C60.0201 13.2504 60.5579 10.409 60.5 9.5C60.4506 8.72415 60 8 60 8Z" fill="black" fill-opacity="0.2"/>
<path d="M64.5001 10.9999C65.5003 9.49991 66.0003 7.99991 65.5003 6.99991C65.1131 6.22549 64.4833 5.83592 63.7941 5.68972C62.8997 5.5 61.0001 6.49998 60.5001 6.5C60 6.5 60.5001 7.5 60.5001 7.5C60.7763 8.10826 61.9998 7.99991 63 7.5C63.8751 7.06264 64.0002 7.99995 63 9.00002C62.5 9.5 62 10.3125 62 11.5C62 12.6875 63.0002 13.9999 64.0002 13.9999C65.0002 13.9999 67.5002 12.4999 68.5002 12.4999C69.5002 12.4999 69.0002 11.4999 68.0002 10.9999C67.0002 10.4999 65.0003 11.9999 64.5002 11.9999C64.0002 11.9999 64.0002 11.4999 64.5001 10.9999Z" fill="url(#paint10_linear_229_42)"/>
<path d="M64.5001 10.9999C65.5003 9.49991 66.0003 7.99991 65.5003 6.99991C65.1131 6.22549 64.4833 5.83592 63.7941 5.68972C62.8997 5.5 61.0001 6.49998 60.5001 6.5C60 6.5 60.5001 7.5 60.5001 7.5C60.7763 8.10826 61.9998 7.99991 63 7.5C63.8751 7.06264 64.0002 7.99995 63 9.00002C62.5 9.5 62 10.3125 62 11.5C62 12.6875 63.0002 13.9999 64.0002 13.9999C65.0002 13.9999 67.5002 12.4999 68.5002 12.4999C69.5002 12.4999 69.0002 11.4999 68.0002 10.9999C67.0002 10.4999 65.0003 11.9999 64.5002 11.9999C64.0002 11.9999 64.0002 11.4999 64.5001 10.9999Z" fill="black" fill-opacity="0.2"/>
<path d="M64.5001 10.9999C65.5003 9.49991 66.0003 7.99991 65.5003 6.99991C65.1131 6.22549 64.4833 5.83592 63.7941 5.68972C62.8997 5.5 61.0001 6.49998 60.5001 6.5C60 6.5 60.5001 7.5 60.5001 7.5C60.7763 8.10826 61.9998 7.99991 63 7.5C63.8751 7.06264 64.0002 7.99995 63 9.00002C62.5 9.5 62 10.3125 62 11.5C62 12.6875 63.0002 13.9999 64.0002 13.9999C65.0002 13.9999 67.5002 12.4999 68.5002 12.4999C69.5002 12.4999 69.0002 11.4999 68.0002 10.9999C67.0002 10.4999 65.0003 11.9999 64.5002 11.9999C64.0002 11.9999 64.0002 11.4999 64.5001 10.9999Z" fill="black" fill-opacity="0.2"/>
<path d="M64.5001 10.9999C65.5003 9.49991 66.0003 7.99991 65.5003 6.99991C65.1131 6.22549 64.4833 5.83592 63.7941 5.68972C62.8997 5.5 61.0001 6.49998 60.5001 6.5C60 6.5 60.5001 7.5 60.5001 7.5C60.7763 8.10826 61.9998 7.99991 63 7.5C63.8751 7.06264 64.0002 7.99995 63 9.00002C62.5 9.5 62 10.3125 62 11.5C62 12.6875 63.0002 13.9999 64.0002 13.9999C65.0002 13.9999 67.5002 12.4999 68.5002 12.4999C69.5002 12.4999 69.0002 11.4999 68.0002 10.9999C67.0002 10.4999 65.0003 11.9999 64.5002 11.9999C64.0002 11.9999 64.0002 11.4999 64.5001 10.9999Z" fill="black" fill-opacity="0.2"/>
<path d="M64.5001 10.9999C65.5003 9.49991 66.0003 7.99991 65.5003 6.99991C65.1131 6.22549 64.4833 5.83592 63.7941 5.68972C62.8997 5.5 61.0001 6.49998 60.5001 6.5C60 6.5 60.5001 7.5 60.5001 7.5C60.7763 8.10826 61.9998 7.99991 63 7.5C63.8751 7.06264 64.0002 7.99995 63 9.00002C62.5 9.5 62 10.3125 62 11.5C62 12.6875 63.0002 13.9999 64.0002 13.9999C65.0002 13.9999 67.5002 12.4999 68.5002 12.4999C69.5002 12.4999 69.0002 11.4999 68.0002 10.9999C67.0002 10.4999 65.0003 11.9999 64.5002 11.9999C64.0002 11.9999 64.0002 11.4999 64.5001 10.9999Z" fill="black" fill-opacity="0.2"/>
<path d="M64.5001 10.9999C65.5003 9.49991 66.0003 7.99991 65.5003 6.99991C65.1131 6.22549 64.4833 5.83592 63.7941 5.68972C62.8997 5.5 61.0001 6.49998 60.5001 6.5C60 6.5 60.5001 7.5 60.5001 7.5C60.7763 8.10826 61.9998 7.99991 63 7.5C63.8751 7.06264 64.0002 7.99995 63 9.00002C62.5 9.5 62 10.3125 62 11.5C62 12.6875 63.0002 13.9999 64.0002 13.9999C65.0002 13.9999 67.5002 12.4999 68.5002 12.4999C69.5002 12.4999 69.0002 11.4999 68.0002 10.9999C67.0002 10.4999 65.0003 11.9999 64.5002 11.9999C64.0002 11.9999 64.0002 11.4999 64.5001 10.9999Z" fill="black" fill-opacity="0.2"/>
<path d="M64.5001 10.9999C65.5003 9.49991 66.0003 7.99991 65.5003 6.99991C65.1131 6.22549 64.4833 5.83592 63.7941 5.68972C62.8997 5.5 61.0001 6.49998 60.5001 6.5C60 6.5 60.5001 7.5 60.5001 7.5C60.7763 8.10826 61.9998 7.99991 63 7.5C63.8751 7.06264 64.0002 7.99995 63 9.00002C62.5 9.5 62 10.3125 62 11.5C62 12.6875 63.0002 13.9999 64.0002 13.9999C65.0002 13.9999 67.5002 12.4999 68.5002 12.4999C69.5002 12.4999 69.0002 11.4999 68.0002 10.9999C67.0002 10.4999 65.0003 11.9999 64.5002 11.9999C64.0002 11.9999 64.0002 11.4999 64.5001 10.9999Z" fill="black" fill-opacity="0.2"/>
<path d="M64.5001 10.9999C65.5003 9.49991 66.0003 7.99991 65.5003 6.99991C65.1131 6.22549 64.4833 5.83592 63.7941 5.68972C62.8997 5.5 61.0001 6.49998 60.5001 6.5C60 6.5 60.5001 7.5 60.5001 7.5C60.7763 8.10826 61.9998 7.99991 63 7.5C63.8751 7.06264 64.0002 7.99995 63 9.00002C62.5 9.5 62 10.3125 62 11.5C62 12.6875 63.0002 13.9999 64.0002 13.9999C65.0002 13.9999 67.5002 12.4999 68.5002 12.4999C69.5002 12.4999 69.0002 11.4999 68.0002 10.9999C67.0002 10.4999 65.0003 11.9999 64.5002 11.9999C64.0002 11.9999 64.0002 11.4999 64.5001 10.9999Z" fill="black" fill-opacity="0.2"/>
<path d="M64.5001 10.9999C65.5003 9.49991 66.0003 7.99991 65.5003 6.99991C65.1131 6.22549 64.4833 5.83592 63.7941 5.68972C62.8997 5.5 61.0001 6.49998 60.5001 6.5C60 6.5 60.5001 7.5 60.5001 7.5C60.7763 8.10826 61.9998 7.99991 63 7.5C63.8751 7.06264 64.0002 7.99995 63 9.00002C62.5 9.5 62 10.3125 62 11.5C62 12.6875 63.0002 13.9999 64.0002 13.9999C65.0002 13.9999 67.5002 12.4999 68.5002 12.4999C69.5002 12.4999 69.0002 11.4999 68.0002 10.9999C67.0002 10.4999 65.0003 11.9999 64.5002 11.9999C64.0002 11.9999 64.0002 11.4999 64.5001 10.9999Z" fill="black" fill-opacity="0.2"/>
<path d="M69.9999 6.49975C70.4999 4.49976 68.4999 4.49975 67.9999 5.49976C67.5 6.49958 67.5 10.9982 67.5 11.9993V11.9998C67.5 12.9998 68.5 13.9998 69.5 13.9998C70.5 13.9998 71.3405 13.181 70.9999 12.4998C70.6593 11.8185 69.9999 11.4998 69.4999 11.9998C69.4999 11.4998 69.4999 8.49975 69.9999 6.49975Z" fill="url(#paint11_linear_229_42)"/>
<path d="M69.9999 6.49975C70.4999 4.49976 68.4999 4.49975 67.9999 5.49976C67.5 6.49958 67.5 10.9982 67.5 11.9993V11.9998C67.5 12.9998 68.5 13.9998 69.5 13.9998C70.5 13.9998 71.3405 13.181 70.9999 12.4998C70.6593 11.8185 69.9999 11.4998 69.4999 11.9998C69.4999 11.4998 69.4999 8.49975 69.9999 6.49975Z" fill="black" fill-opacity="0.2"/>
<path d="M69.9999 6.49975C70.4999 4.49976 68.4999 4.49975 67.9999 5.49976C67.5 6.49958 67.5 10.9982 67.5 11.9993V11.9998C67.5 12.9998 68.5 13.9998 69.5 13.9998C70.5 13.9998 71.3405 13.181 70.9999 12.4998C70.6593 11.8185 69.9999 11.4998 69.4999 11.9998C69.4999 11.4998 69.4999 8.49975 69.9999 6.49975Z" fill="black" fill-opacity="0.2"/>
<path d="M69.9999 6.49975C70.4999 4.49976 68.4999 4.49975 67.9999 5.49976C67.5 6.49958 67.5 10.9982 67.5 11.9993V11.9998C67.5 12.9998 68.5 13.9998 69.5 13.9998C70.5 13.9998 71.3405 13.181 70.9999 12.4998C70.6593 11.8185 69.9999 11.4998 69.4999 11.9998C69.4999 11.4998 69.4999 8.49975 69.9999 6.49975Z" fill="black" fill-opacity="0.2"/>
<path d="M69.9999 6.49975C70.4999 4.49976 68.4999 4.49975 67.9999 5.49976C67.5 6.49958 67.5 10.9982 67.5 11.9993V11.9998C67.5 12.9998 68.5 13.9998 69.5 13.9998C70.5 13.9998 71.3405 13.181 70.9999 12.4998C70.6593 11.8185 69.9999 11.4998 69.4999 11.9998C69.4999 11.4998 69.4999 8.49975 69.9999 6.49975Z" fill="black" fill-opacity="0.2"/>
<path d="M69.9999 6.49975C70.4999 4.49976 68.4999 4.49975 67.9999 5.49976C67.5 6.49958 67.5 10.9982 67.5 11.9993V11.9998C67.5 12.9998 68.5 13.9998 69.5 13.9998C70.5 13.9998 71.3405 13.181 70.9999 12.4998C70.6593 11.8185 69.9999 11.4998 69.4999 11.9998C69.4999 11.4998 69.4999 8.49975 69.9999 6.49975Z" fill="black" fill-opacity="0.2"/>
<path d="M69.9999 6.49975C70.4999 4.49976 68.4999 4.49975 67.9999 5.49976C67.5 6.49958 67.5 10.9982 67.5 11.9993V11.9998C67.5 12.9998 68.5 13.9998 69.5 13.9998C70.5 13.9998 71.3405 13.181 70.9999 12.4998C70.6593 11.8185 69.9999 11.4998 69.4999 11.9998C69.4999 11.4998 69.4999 8.49975 69.9999 6.49975Z" fill="black" fill-opacity="0.2"/>
<path d="M69.9999 6.49975C70.4999 4.49976 68.4999 4.49975 67.9999 5.49976C67.5 6.49958 67.5 10.9982 67.5 11.9993V11.9998C67.5 12.9998 68.5 13.9998 69.5 13.9998C70.5 13.9998 71.3405 13.181 70.9999 12.4998C70.6593 11.8185 69.9999 11.4998 69.4999 11.9998C69.4999 11.4998 69.4999 8.49975 69.9999 6.49975Z" fill="black" fill-opacity="0.2"/>
<path d="M69.9999 6.49975C70.4999 4.49976 68.4999 4.49975 67.9999 5.49976C67.5 6.49958 67.5 10.9982 67.5 11.9993V11.9998C67.5 12.9998 68.5 13.9998 69.5 13.9998C70.5 13.9998 71.3405 13.181 70.9999 12.4998C70.6593 11.8185 69.9999 11.4998 69.4999 11.9998C69.4999 11.4998 69.4999 8.49975 69.9999 6.49975Z" fill="black" fill-opacity="0.2"/>
<path d="M70.5 2.49976C69.9999 2.24965 69.1327 1.3671 69.5 0.999761C69.9217 0.577951 70.8379 0.337744 71.5 1.00005C72.2889 1.7892 71.7125 3.10621 70.5 2.49976Z" fill="url(#paint12_linear_229_42)"/>
<path d="M70.5 2.49976C69.9999 2.24965 69.1327 1.3671 69.5 0.999761C69.9217 0.577951 70.8379 0.337744 71.5 1.00005C72.2889 1.7892 71.7125 3.10621 70.5 2.49976Z" fill="black" fill-opacity="0.2"/>
<path d="M70.5 2.49976C69.9999 2.24965 69.1327 1.3671 69.5 0.999761C69.9217 0.577951 70.8379 0.337744 71.5 1.00005C72.2889 1.7892 71.7125 3.10621 70.5 2.49976Z" fill="black" fill-opacity="0.2"/>
<path d="M70.5 2.49976C69.9999 2.24965 69.1327 1.3671 69.5 0.999761C69.9217 0.577951 70.8379 0.337744 71.5 1.00005C72.2889 1.7892 71.7125 3.10621 70.5 2.49976Z" fill="black" fill-opacity="0.2"/>
<path d="M70.5 2.49976C69.9999 2.24965 69.1327 1.3671 69.5 0.999761C69.9217 0.577951 70.8379 0.337744 71.5 1.00005C72.2889 1.7892 71.7125 3.10621 70.5 2.49976Z" fill="black" fill-opacity="0.2"/>
<path d="M70.5 2.49976C69.9999 2.24965 69.1327 1.3671 69.5 0.999761C69.9217 0.577951 70.8379 0.337744 71.5 1.00005C72.2889 1.7892 71.7125 3.10621 70.5 2.49976Z" fill="black" fill-opacity="0.2"/>
<path d="M70.5 2.49976C69.9999 2.24965 69.1327 1.3671 69.5 0.999761C69.9217 0.577951 70.8379 0.337744 71.5 1.00005C72.2889 1.7892 71.7125 3.10621 70.5 2.49976Z" fill="black" fill-opacity="0.2"/>
<path d="M70.5 2.49976C69.9999 2.24965 69.1327 1.3671 69.5 0.999761C69.9217 0.577951 70.8379 0.337744 71.5 1.00005C72.2889 1.7892 71.7125 3.10621 70.5 2.49976Z" fill="black" fill-opacity="0.2"/>
<path d="M70.5 2.49976C69.9999 2.24965 69.1327 1.3671 69.5 0.999761C69.9217 0.577951 70.8379 0.337744 71.5 1.00005C72.2889 1.7892 71.7125 3.10621 70.5 2.49976Z" fill="black" fill-opacity="0.2"/>
<path d="M39.5002 21.5001C16.0003 26.841 3.00017 33.0001 2.00022 34.0001C1.37661 34.6238 0.0173884 33.3861 8.57257e-05 32.5C-0.0103565 31.9652 0.935614 31.8764 1.50014 31.5C3.00009 30.5 7.00009 28 13.0003 26.5001C19.0005 25.0002 39.0003 18.5001 49.0003 17.5001C59.0003 16.5001 69.5003 16.0001 71.5002 16.5001C73.5002 17.0001 74.0003 19.5001 70.5002 19.0001C67.5003 19.0001 66.5002 19.5002 64.0002 20.0001C61.5002 20.5001 48.0003 23.5001 39.0002 26.5001C41.0002 23.5002 61.5002 18.5001 61.5002 18.5001C61.5002 18.5001 50.5002 19.0001 39.5002 21.5001Z" fill="url(#paint13_linear_229_42)"/>
<path d="M39.5002 21.5001C16.0003 26.841 3.00017 33.0001 2.00022 34.0001C1.37661 34.6238 0.0173884 33.3861 8.57257e-05 32.5C-0.0103565 31.9652 0.935614 31.8764 1.50014 31.5C3.00009 30.5 7.00009 28 13.0003 26.5001C19.0005 25.0002 39.0003 18.5001 49.0003 17.5001C59.0003 16.5001 69.5003 16.0001 71.5002 16.5001C73.5002 17.0001 74.0003 19.5001 70.5002 19.0001C67.5003 19.0001 66.5002 19.5002 64.0002 20.0001C61.5002 20.5001 48.0003 23.5001 39.0002 26.5001C41.0002 23.5002 61.5002 18.5001 61.5002 18.5001C61.5002 18.5001 50.5002 19.0001 39.5002 21.5001Z" fill="black" fill-opacity="0.2"/>
<path d="M39.5002 21.5001C16.0003 26.841 3.00017 33.0001 2.00022 34.0001C1.37661 34.6238 0.0173884 33.3861 8.57257e-05 32.5C-0.0103565 31.9652 0.935614 31.8764 1.50014 31.5C3.00009 30.5 7.00009 28 13.0003 26.5001C19.0005 25.0002 39.0003 18.5001 49.0003 17.5001C59.0003 16.5001 69.5003 16.0001 71.5002 16.5001C73.5002 17.0001 74.0003 19.5001 70.5002 19.0001C67.5003 19.0001 66.5002 19.5002 64.0002 20.0001C61.5002 20.5001 48.0003 23.5001 39.0002 26.5001C41.0002 23.5002 61.5002 18.5001 61.5002 18.5001C61.5002 18.5001 50.5002 19.0001 39.5002 21.5001Z" fill="black" fill-opacity="0.2"/>
<path d="M39.5002 21.5001C16.0003 26.841 3.00017 33.0001 2.00022 34.0001C1.37661 34.6238 0.0173884 33.3861 8.57257e-05 32.5C-0.0103565 31.9652 0.935614 31.8764 1.50014 31.5C3.00009 30.5 7.00009 28 13.0003 26.5001C19.0005 25.0002 39.0003 18.5001 49.0003 17.5001C59.0003 16.5001 69.5003 16.0001 71.5002 16.5001C73.5002 17.0001 74.0003 19.5001 70.5002 19.0001C67.5003 19.0001 66.5002 19.5002 64.0002 20.0001C61.5002 20.5001 48.0003 23.5001 39.0002 26.5001C41.0002 23.5002 61.5002 18.5001 61.5002 18.5001C61.5002 18.5001 50.5002 19.0001 39.5002 21.5001Z" fill="black" fill-opacity="0.2"/>
<path d="M39.5002 21.5001C16.0003 26.841 3.00017 33.0001 2.00022 34.0001C1.37661 34.6238 0.0173884 33.3861 8.57257e-05 32.5C-0.0103565 31.9652 0.935614 31.8764 1.50014 31.5C3.00009 30.5 7.00009 28 13.0003 26.5001C19.0005 25.0002 39.0003 18.5001 49.0003 17.5001C59.0003 16.5001 69.5003 16.0001 71.5002 16.5001C73.5002 17.0001 74.0003 19.5001 70.5002 19.0001C67.5003 19.0001 66.5002 19.5002 64.0002 20.0001C61.5002 20.5001 48.0003 23.5001 39.0002 26.5001C41.0002 23.5002 61.5002 18.5001 61.5002 18.5001C61.5002 18.5001 50.5002 19.0001 39.5002 21.5001Z" fill="black" fill-opacity="0.2"/>
<path d="M39.5002 21.5001C16.0003 26.841 3.00017 33.0001 2.00022 34.0001C1.37661 34.6238 0.0173884 33.3861 8.57257e-05 32.5C-0.0103565 31.9652 0.935614 31.8764 1.50014 31.5C3.00009 30.5 7.00009 28 13.0003 26.5001C19.0005 25.0002 39.0003 18.5001 49.0003 17.5001C59.0003 16.5001 69.5003 16.0001 71.5002 16.5001C73.5002 17.0001 74.0003 19.5001 70.5002 19.0001C67.5003 19.0001 66.5002 19.5002 64.0002 20.0001C61.5002 20.5001 48.0003 23.5001 39.0002 26.5001C41.0002 23.5002 61.5002 18.5001 61.5002 18.5001C61.5002 18.5001 50.5002 19.0001 39.5002 21.5001Z" fill="black" fill-opacity="0.2"/>
<path d="M39.5002 21.5001C16.0003 26.841 3.00017 33.0001 2.00022 34.0001C1.37661 34.6238 0.0173884 33.3861 8.57257e-05 32.5C-0.0103565 31.9652 0.935614 31.8764 1.50014 31.5C3.00009 30.5 7.00009 28 13.0003 26.5001C19.0005 25.0002 39.0003 18.5001 49.0003 17.5001C59.0003 16.5001 69.5003 16.0001 71.5002 16.5001C73.5002 17.0001 74.0003 19.5001 70.5002 19.0001C67.5003 19.0001 66.5002 19.5002 64.0002 20.0001C61.5002 20.5001 48.0003 23.5001 39.0002 26.5001C41.0002 23.5002 61.5002 18.5001 61.5002 18.5001C61.5002 18.5001 50.5002 19.0001 39.5002 21.5001Z" fill="black" fill-opacity="0.2"/>
<path d="M39.5002 21.5001C16.0003 26.841 3.00017 33.0001 2.00022 34.0001C1.37661 34.6238 0.0173884 33.3861 8.57257e-05 32.5C-0.0103565 31.9652 0.935614 31.8764 1.50014 31.5C3.00009 30.5 7.00009 28 13.0003 26.5001C19.0005 25.0002 39.0003 18.5001 49.0003 17.5001C59.0003 16.5001 69.5003 16.0001 71.5002 16.5001C73.5002 17.0001 74.0003 19.5001 70.5002 19.0001C67.5003 19.0001 66.5002 19.5002 64.0002 20.0001C61.5002 20.5001 48.0003 23.5001 39.0002 26.5001C41.0002 23.5002 61.5002 18.5001 61.5002 18.5001C61.5002 18.5001 50.5002 19.0001 39.5002 21.5001Z" fill="black" fill-opacity="0.2"/>
<path d="M39.5002 21.5001C16.0003 26.841 3.00017 33.0001 2.00022 34.0001C1.37661 34.6238 0.0173884 33.3861 8.57257e-05 32.5C-0.0103565 31.9652 0.935614 31.8764 1.50014 31.5C3.00009 30.5 7.00009 28 13.0003 26.5001C19.0005 25.0002 39.0003 18.5001 49.0003 17.5001C59.0003 16.5001 69.5003 16.0001 71.5002 16.5001C73.5002 17.0001 74.0003 19.5001 70.5002 19.0001C67.5003 19.0001 66.5002 19.5002 64.0002 20.0001C61.5002 20.5001 48.0003 23.5001 39.0002 26.5001C41.0002 23.5002 61.5002 18.5001 61.5002 18.5001C61.5002 18.5001 50.5002 19.0001 39.5002 21.5001Z" fill="black" fill-opacity="0.2"/>
<defs>
<linearGradient id="paint0_linear_229_42" x1="37.7671" y1="3.99902" x2="41.5383" y2="20.8935" gradientUnits="userSpaceOnUse">
<stop stop-color="#B16C45"/>
<stop offset="0.765625" stop-color="#C63D6E"/>
</linearGradient>
<linearGradient id="paint1_linear_229_42" x1="37.7671" y1="3.99902" x2="41.5383" y2="20.8935" gradientUnits="userSpaceOnUse">
<stop stop-color="#B16C45"/>
<stop offset="0.765625" stop-color="#C63D6E"/>
</linearGradient>
<linearGradient id="paint2_linear_229_42" x1="37.7671" y1="3.99902" x2="41.5383" y2="20.8935" gradientUnits="userSpaceOnUse">
<stop stop-color="#B16C45"/>
<stop offset="0.765625" stop-color="#C63D6E"/>
</linearGradient>
<linearGradient id="paint3_linear_229_42" x1="37.7671" y1="3.99902" x2="41.5383" y2="20.8935" gradientUnits="userSpaceOnUse">
<stop stop-color="#B16C45"/>
<stop offset="0.765625" stop-color="#C63D6E"/>
</linearGradient>
<linearGradient id="paint4_linear_229_42" x1="47.6032" y1="8.5" x2="48.8872" y2="17.1993" gradientUnits="userSpaceOnUse">
<stop stop-color="#B16C45"/>
<stop offset="0.765625" stop-color="#C63D6E"/>
</linearGradient>
<linearGradient id="paint5_linear_229_42" x1="22.2111" y1="8" x2="29.0394" y2="35.2645" gradientUnits="userSpaceOnUse">
<stop stop-color="#B16C45"/>
<stop offset="0.765625" stop-color="#C63D6E"/>
</linearGradient>
<linearGradient id="paint6_linear_229_42" x1="22.2111" y1="8" x2="29.0394" y2="35.2645" gradientUnits="userSpaceOnUse">
<stop stop-color="#B16C45"/>
<stop offset="0.765625" stop-color="#C63D6E"/>
</linearGradient>
<linearGradient id="paint7_linear_229_42" x1="13.314" y1="16.0002" x2="14.8569" y2="24.1051" gradientUnits="userSpaceOnUse">
<stop stop-color="#B16C45"/>
<stop offset="0.765625" stop-color="#C63D6E"/>
</linearGradient>
<linearGradient id="paint8_linear_229_42" x1="3.78829" y1="9.67151" x2="8.29442" y2="26.7064" gradientUnits="userSpaceOnUse">
<stop stop-color="#B16C45"/>
<stop offset="0.765625" stop-color="#C63D6E"/>
</linearGradient>
<linearGradient id="paint9_linear_229_42" x1="55.0942" y1="7" x2="56.6022" y2="15.633" gradientUnits="userSpaceOnUse">
<stop stop-color="#B16C45"/>
<stop offset="0.765625" stop-color="#C63D6E"/>
</linearGradient>
<linearGradient id="paint10_linear_229_42" x1="62.7246" y1="5.66577" x2="64.063" y2="14.4892" gradientUnits="userSpaceOnUse">
<stop stop-color="#B16C45"/>
<stop offset="0.765625" stop-color="#C63D6E"/>
</linearGradient>
<linearGradient id="paint11_linear_229_42" x1="68.7173" y1="0.588501" x2="74.4613" y2="12.2955" gradientUnits="userSpaceOnUse">
<stop stop-color="#B16C45"/>
<stop offset="0.765625" stop-color="#C63D6E"/>
</linearGradient>
<linearGradient id="paint12_linear_229_42" x1="68.7173" y1="0.588501" x2="74.4613" y2="12.2955" gradientUnits="userSpaceOnUse">
<stop stop-color="#B16C45"/>
<stop offset="0.765625" stop-color="#C63D6E"/>
</linearGradient>
<linearGradient id="paint13_linear_229_42" x1="20.3908" y1="16.304" x2="21.1446" y2="35.6238" gradientUnits="userSpaceOnUse">
<stop stop-color="#B16C45"/>
<stop offset="0.765625" stop-color="#C63D6E"/>
</linearGradient>
</defs>
</svg>
